<svg width="836" height="230" viewBox="0 0 836 230" fill="none" xmlns="http://www.w3.org/2000/svg">
<path d="M261.5 130.9C254.2 130.9 248.5 128.9 244.2 124.9C239.9 120.8 237.8 115 237.8 107.4V93.3C237.8 85.7 239.9 79.9 244.2 75.9C248.5 71.8 254.2 69.8 261.5 69.8C268.7 69.8 274.3 71.8 278.2 75.8C282.2 79.7 284.2 85.1 284.2 92V92.5H273.3V91.7C273.3 88.2 272.3 85.4 270.4 83.1C268.5 80.9 265.6 79.7 261.6 79.7C257.7 79.7 254.6 80.9 252.4 83.3C250.2 85.7 249 89 249 93.1V107.5C249 111.6 250.1 114.9 252.4 117.3C254.6 119.7 257.7 120.9 261.6 120.9C265.6 120.9 268.5 119.8 270.4 117.5C272.4 115.2 273.3 112.3 273.3 108.9V107.4H284.2V108.6C284.2 115.5 282.2 120.9 278.2 124.9C274.3 129 268.8 130.9 261.5 130.9ZM310.1 130.9C306 130.9 302.3 130 299.1 128.3C296 126.5 293.5 124 291.7 120.8C290 117.6 289.1 113.7 289.1 109.4V108.4C289.1 104 290 100.3 291.7 97.1C293.4 93.9 295.9 91.4 299 89.6C302.1 87.8 305.8 86.9 309.9 86.9C314 86.9 317.5 87.8 320.6 89.7C323.6 91.5 326 94 327.7 97.3C329.4 100.5 330.2 104.2 330.2 108.5V112.1H299.9C300 115 301.1 117.3 303.1 119.1C305.1 120.9 307.6 121.8 310.5 121.8C313.5 121.8 315.7 121.2 317.1 119.9C318.5 118.6 319.6 117.2 320.3 115.6L329 120.1C328.2 121.6 327.1 123.2 325.6 124.9C324.1 126.6 322.2 128 319.7 129.3C317 130.3 313.9 130.9 310.1 130.9ZM299.9 104.1H319.4C319.2 101.7 318.2 99.8 316.5 98.3C314.8 96.8 312.6 96.1 309.9 96.1C307 96.1 304.8 96.8 303.1 98.3C301.3 99.8 300.3 101.7 299.9 104.1ZM337 129.8V88.1H347.5V93.6H349C349.7 92.1 350.9 90.8 352.8 89.5C354.6 88.2 357.4 87.5 361.2 87.5C364.4 87.5 367.3 88.3 369.7 89.8C372.2 91.3 374.1 93.3 375.4 95.9C376.7 98.5 377.4 101.5 377.4 105V129.9H366.8V105.9C366.8 102.8 366 100.4 364.4 98.8C362.9 97.2 360.7 96.4 357.8 96.4C354.6 96.4 352 97.5 350.2 99.7C348.4 101.8 347.5 104.8 347.5 108.7V129.9H337V129.8ZM401.1 129.8C398.4 129.8 396.1 129 394.4 127.3C392.7 125.6 391.9 123.3 391.9 120.4V96.9H381.5V88.1H391.9V75.2H402.5V88.1H413.9V96.8H402.5V118.5C402.5 120.2 403.3 121 404.9 121H413V129.7H401.1V129.8ZM438.4 130.9C434.3 130.9 430.6 130 427.4 128.3C424.3 126.5 421.8 124 420 120.8C418.3 117.6 417.4 113.7 417.4 109.4V108.4C417.4 104 418.3 100.3 420 97.1C421.7 93.9 424.2 91.4 427.3 89.6C430.4 87.8 434.1 86.9 438.2 86.9C442.3 86.9 445.8 87.8 448.9 89.7C451.9 91.5 454.3 94 456 97.3C457.7 100.5 458.5 104.2 458.5 108.5V112.1H428.2C428.3 115 429.4 117.3 431.4 119.1C433.4 120.9 435.9 121.8 438.8 121.8C441.8 121.8 444 121.2 445.4 119.9C446.8 118.6 447.9 117.2 448.6 115.6L457.3 120.1C456.5 121.6 455.4 123.2 453.9 124.9C452.4 126.6 450.5 128 448 129.3C445.4 130.3 442.2 130.9 438.4 130.9ZM428.3 104.1H447.8C447.6 101.7 446.6 99.8 444.9 98.3C443.2 96.8 441 96.1 438.3 96.1C435.4 96.1 433.2 96.8 431.5 98.3C429.7 99.8 428.7 101.7 428.3 104.1ZM464.7 129.8V88.1H475.1V92.8H476.6C477.2 91.1 478.2 89.9 479.6 89.1C481.1 88.3 482.7 87.9 484.6 87.9H489.6V97.3H484.5C481.8 97.3 479.6 98 477.9 99.5C476.2 100.9 475.3 103.1 475.3 106.1V129.8H464.7ZM514.7 129.8V71H551.7V81.1H525.8V95.3H549.7V105.4H525.8V129.8H514.7ZM576.8 130.9C572.7 130.9 568.9 130.1 565.6 128.4C562.3 126.7 559.7 124.3 557.8 121.1C555.9 117.9 554.9 114.1 554.9 109.6V108.3C554.9 103.8 555.9 100 557.8 96.8C559.7 93.6 562.3 91.2 565.6 89.5C568.9 87.8 572.6 87 576.8 87C581 87 584.7 87.8 588 89.5C591.3 91.2 593.9 93.6 595.8 96.8C597.7 100 598.7 103.8 598.7 108.3V109.6C598.7 114.1 597.7 117.9 595.8 121.1C593.9 124.3 591.3 126.7 588 128.4C584.7 130.1 581 130.9 576.8 130.9ZM576.8 121.5C580 121.5 582.7 120.5 584.9 118.4C587 116.3 588.1 113.2 588.1 109.3V108.5C588.1 104.6 587 101.6 584.9 99.5C582.8 97.4 580.1 96.3 576.8 96.3C573.6 96.3 570.9 97.4 568.7 99.5C566.6 101.6 565.5 104.6 565.5 108.5V109.3C565.5 113.2 566.6 116.2 568.7 118.4C570.9 120.5 573.6 121.5 576.8 121.5ZM605.9 129.8V88.1H616.3V92.8H617.8C618.4 91.1 619.4 89.9 620.8 89.1C622.3 88.3 623.9 87.9 625.8 87.9H630.8V97.3H625.6C622.9 97.3 620.7 98 619 99.5C617.3 100.9 616.4 103.1 616.4 106.1V129.8H605.9ZM261 208.1C253.7 208.1 248 206.1 243.7 202.1C239.4 198 237.3 192.2 237.3 184.6V170.5C237.3 162.9 239.4 157.1 243.7 153.1C248 149 253.7 147 261 147C268.2 147 273.8 149 277.7 153C281.7 156.9 283.7 162.3 283.7 169.2V169.7H272.8V168.9C272.8 165.4 271.8 162.6 269.9 160.3C268 158.1 265.1 156.9 261.1 156.9C257.2 156.9 254.1 158.1 251.9 160.5C249.7 162.9 248.5 166.2 248.5 170.3V184.7C248.5 188.8 249.6 192.1 251.9 194.5C254.1 196.9 257.2 198.1 261.1 198.1C265.1 198.1 268 197 269.9 194.7C271.9 192.4 272.8 189.5 272.8 186.1V184.6H283.7V185.8C283.7 192.7 281.7 198.1 277.7 202.1C273.8 206.1 268.2 208.1 261 208.1ZM290.5 206.9V165.2H300.9V169.9H302.4C303 168.2 304 167 305.4 166.2C306.9 165.4 308.5 165 310.4 165H315.4V174.4H310.2C307.5 174.4 305.3 175.1 303.6 176.6C301.9 178 301 180.2 301 183.2V206.9H290.5ZM322.8 206.9V165.2H333.4V206.9H322.8ZM328.1 160.3C326.2 160.3 324.6 159.7 323.2 158.5C321.9 157.3 321.3 155.6 321.3 153.6C321.3 151.6 321.9 150 323.2 148.7C324.5 147.5 326.2 146.9 328.1 146.9C330.1 146.9 331.7 147.5 333 148.7C334.3 149.9 334.9 151.6 334.9 153.6C334.9 155.6 334.3 157.2 333 158.5C331.7 159.8 330.1 160.3 328.1 160.3ZM341.1 206.9V165.2H351.5V169.7H353C353.7 168.3 354.9 167.1 356.6 166.1C358.3 165 360.5 164.5 363.2 164.5C366.2 164.5 368.5 165.1 370.3 166.3C372.1 167.4 373.5 168.9 374.4 170.8H375.9C376.9 169 378.2 167.5 379.9 166.3C381.6 165.1 384.1 164.5 387.3 164.5C389.9 164.5 392.2 165.1 394.3 166.2C396.4 167.3 398.1 168.9 399.3 171.2C400.6 173.4 401.2 176.2 401.2 179.5V206.9H390.6V180.3C390.6 178 390 176.3 388.8 175.2C387.6 174 386 173.4 383.8 173.4C381.4 173.4 379.5 174.2 378.2 175.8C376.9 177.3 376.3 179.5 376.3 182.4V207H365.7V180.4C365.7 178.1 365.1 176.4 363.9 175.3C362.7 174.1 361.1 173.5 358.9 173.5C356.5 173.5 354.6 174.3 353.3 175.9C352 177.4 351.4 179.6 351.4 182.5V207.1H341.1V206.9ZM410.3 206.9V165.2H420.9V206.9H410.3ZM415.6 160.3C413.7 160.3 412.1 159.7 410.7 158.5C409.4 157.3 408.8 155.6 408.8 153.6C408.8 151.6 409.4 150 410.7 148.7C412 147.5 413.7 146.9 415.6 146.9C417.6 146.9 419.2 147.5 420.5 148.7C421.8 149.9 422.4 151.6 422.4 153.6C422.4 155.6 421.8 157.2 420.5 158.5C419.2 159.7 417.5 160.3 415.6 160.3ZM430.1 206.9V165.2H440.5V170.7H442C442.7 169.2 443.9 167.9 445.8 166.6C447.6 165.3 450.4 164.6 454.2 164.6C457.4 164.6 460.3 165.4 462.7 166.9C465.2 168.4 467.1 170.4 468.4 173C469.7 175.6 470.4 178.6 470.4 182.1V207H459.8V183C459.8 179.9 459 177.5 457.4 175.9C455.9 174.3 453.7 173.5 450.8 173.5C447.6 173.5 445 174.6 443.2 176.8C441.4 178.9 440.5 181.9 440.5 185.8V207H430.1V206.9ZM492.3 208.1C489.3 208.1 486.7 207.6 484.3 206.6C481.9 205.5 480.1 204 478.7 202.1C477.4 200.1 476.7 197.6 476.7 194.8C476.7 191.9 477.4 189.6 478.7 187.7C480.1 185.7 482 184.3 484.4 183.3C486.9 182.3 489.7 181.8 492.8 181.8H504.2V179.4C504.2 177.4 503.6 175.8 502.4 174.6C501.2 173.3 499.2 172.7 496.5 172.7C493.9 172.7 491.9 173.3 490.6 174.5C489.3 175.7 488.5 177.2 488.1 179.1L478.4 175.8C479.1 173.7 480.1 171.7 481.6 170C483.1 168.2 485.1 166.8 487.6 165.7C490.1 164.6 493.2 164 496.8 164C502.3 164 506.6 165.4 509.8 168.1C513 170.8 514.6 174.8 514.6 180V195.5C514.6 197.2 515.4 198 517 198H520.4V206.7H513.3C511.2 206.7 509.5 206.2 508.2 205.2C506.9 204.2 506.2 202.8 506.2 201.2V201.1H504.6C504.4 201.8 503.9 202.7 503.1 203.8C502.3 204.9 501.1 205.8 499.4 206.7C497.7 207.6 495.2 208.1 492.3 208.1ZM494.1 199.5C497.1 199.5 499.5 198.7 501.3 197.1C503.2 195.4 504.2 193.2 504.2 190.5V189.7H493.5C491.5 189.7 490 190.1 488.9 191C487.8 191.9 487.2 193 487.2 194.5C487.2 196 487.8 197.2 489 198.2C490.2 199 491.9 199.5 494.1 199.5ZM525.4 206.9V148.1H536V206.9H525.4ZM582.8 208.1C576.8 208.1 571.9 206.4 568.4 203.1C564.9 199.8 563.1 195.2 563.1 189.2V183.7H574.2V189.2C574.2 191.8 574.9 193.9 576.4 195.4C577.9 196.9 579.9 197.6 582.5 197.6C585 197.6 586.9 196.9 588.2 195.4C589.6 193.9 590.3 191.9 590.3 189.2V158.1H580.2V148.1H608.1V158.2H601.4V189.3C601.4 195.4 599.7 200.1 596.4 203.3C593.1 206.5 588.6 208.1 582.8 208.1ZM624.3 207.6C621.1 207.6 618.2 206.9 615.7 205.4C613.3 203.9 611.4 201.8 610.1 199.2C608.8 196.6 608.1 193.5 608.1 190.1V165.2H618.7V189.2C618.7 192.3 619.5 194.7 621 196.3C622.6 197.9 624.8 198.7 627.6 198.7C630.8 198.7 633.4 197.6 635.2 195.5C637 193.3 637.9 190.3 637.9 186.4V165.2H648.5V206.9H638.1V201.4H636.5C635.8 202.8 634.6 204.2 632.7 205.5C630.9 206.9 628.1 207.6 624.3 207.6ZM673 208.1C667.6 208.1 663.1 206.9 659.6 204.6C656.1 202.2 654 198.9 653.3 194.5L663 192C663.4 194 664 195.5 664.9 196.6C665.9 197.7 667 198.5 668.3 199C669.7 199.4 671.2 199.7 672.8 199.7C675.3 199.7 677.1 199.3 678.3 198.4C679.5 197.5 680.1 196.4 680.1 195.1C680.1 193.8 679.5 192.8 678.4 192.2C677.3 191.5 675.5 190.9 673 190.4L670.6 190C667.7 189.4 665 188.7 662.6 187.7C660.2 186.7 658.3 185.3 656.8 183.6C655.3 181.9 654.6 179.6 654.6 176.9C654.6 172.8 656.1 169.6 659.1 167.4C662.1 165.2 666.1 164 671 164C675.6 164 679.5 165 682.6 167.1C685.7 169.2 687.7 171.9 688.6 175.2L678.8 178.2C678.4 176.1 677.4 174.6 676 173.7C674.7 172.8 673 172.4 671 172.4C669 172.4 667.4 172.8 666.4 173.5C665.3 174.2 664.8 175.1 664.8 176.4C664.8 177.7 665.4 178.8 666.5 179.4C667.6 180 669.1 180.5 671 180.8L673.4 181.2C676.5 181.8 679.4 182.5 681.9 183.5C684.5 184.4 686.5 185.7 687.9 187.4C689.4 189.1 690.2 191.4 690.2 194.3C690.2 198.7 688.6 202.1 685.4 204.5C682.6 206.9 678.3 208.1 673 208.1ZM711.7 206.9C709 206.9 706.7 206.1 705 204.4C703.3 202.7 702.5 200.4 702.5 197.5V174H692.1V165.3H702.5V152.4H713.1V165.3H724.5V174H713.1V195.7C713.1 197.4 713.9 198.2 715.5 198.2H723.6V206.9H711.7ZM731.5 206.9V165.2H742.1V206.9H731.5ZM736.8 160.3C734.9 160.3 733.3 159.7 731.9 158.5C730.6 157.3 730 155.6 730 153.6C730 151.6 730.6 150 731.9 148.7C733.2 147.5 734.9 146.9 736.8 146.9C738.8 146.9 740.4 147.5 741.7 148.7C743 149.9 743.6 151.6 743.6 153.6C743.6 155.6 743 157.2 741.7 158.5C740.4 159.7 738.8 160.3 736.8 160.3ZM769.1 207.7C765.1 207.7 761.4 206.9 758.1 205.2C754.9 203.5 752.3 201.1 750.4 197.9C748.5 194.7 747.5 190.8 747.5 186.3V185.1C747.5 180.6 748.5 176.7 750.4 173.5C752.3 170.3 754.9 167.9 758.1 166.2C761.4 164.5 765.1 163.7 769.1 163.7C773.1 163.7 776.5 164.4 779.3 165.8C782.2 167.2 784.5 169.1 786.2 171.6C788 174 789.2 176.8 789.7 179.8L779.5 182C779.3 180.3 778.8 178.8 778 177.5C777.2 176.2 776.1 175.1 774.6 174.3C773.2 173.5 771.4 173.1 769.3 173.1C767.2 173.1 765.2 173.6 763.5 174.5C761.8 175.4 760.5 176.8 759.5 178.6C758.5 180.4 758.1 182.6 758.1 185.2V186C758.1 188.6 758.6 190.9 759.5 192.7C760.5 194.5 761.9 195.9 763.5 196.8C765.2 197.7 767.2 198.1 769.3 198.1C772.5 198.1 774.9 197.3 776.5 195.7C778.2 194 779.2 191.8 779.7 189.1L789.9 191.5C789.2 194.5 787.9 197.2 786.1 199.6C784.4 202 782.1 203.9 779.2 205.3C776.5 207 773.1 207.7 769.1 207.7ZM815 208.4C810.9 208.4 807.2 207.5 804 205.8C800.9 204 798.4 201.5 796.6 198.3C794.9 195.1 794 191.2 794 186.9V185.9C794 181.5 794.9 177.8 796.6 174.6C798.3 171.4 800.8 168.9 803.9 167.1C807 165.3 810.7 164.4 814.8 164.4C818.9 164.4 822.4 165.3 825.5 167.2C828.5 169 830.9 171.5 832.6 174.8C834.3 178 835.1 181.7 835.1 186V189.6H804.8C804.9 192.5 806 194.8 808 196.6C810 198.4 812.5 199.3 815.4 199.3C818.4 199.3 820.6 198.7 822 197.4C823.4 196.1 824.5 194.7 825.2 193.1L833.9 197.6C833.1 199.1 832 200.7 830.5 202.4C829 204.1 827.1 205.5 824.6 206.8C822 207.8 818.9 208.4 815 208.4ZM804.9 181.6H824.4C824.2 179.2 823.2 177.3 821.5 175.8C819.8 174.3 817.6 173.6 814.9 173.6C812 173.6 809.8 174.3 808.1 175.8C806.3 177.3 805.3 179.2 804.9 181.6Z" fill="black"/>
<path d="M238.1 47.1V21.6H242.9V42.7H254.5V47.1H238.1ZM265.5 47.6C263.7 47.6 262.1 47.2 260.7 46.5C259.3 45.8 258.1 44.7 257.3 43.3C256.5 41.9 256.1 40.3 256.1 38.3V37.7C256.1 35.8 256.5 34.1 257.3 32.7C258.1 31.3 259.3 30.3 260.7 29.5C262.1 28.8 263.7 28.4 265.5 28.4C267.3 28.4 268.9 28.8 270.3 29.5C271.7 30.2 272.9 31.3 273.7 32.7C274.5 34.1 274.9 35.7 274.9 37.7V38.3C274.9 40.2 274.5 41.9 273.7 43.3C272.9 44.7 271.7 45.7 270.3 46.5C268.9 47.3 267.3 47.6 265.5 47.6ZM265.5 43.5C266.9 43.5 268.1 43.1 269 42.2C269.9 41.3 270.4 40 270.4 38.3V37.9C270.4 36.2 269.9 34.9 269 34C268.1 33.1 266.9 32.6 265.5 32.6C264.1 32.6 262.9 33.1 262 34C261.1 34.9 260.6 36.2 260.6 37.9V38.3C260.6 40 261.1 41.3 262 42.2C262.9 43.1 264.1 43.5 265.5 43.5ZM280.1 54.4V50.4H289.9C290.6 50.4 290.9 50 290.9 49.3V44.8H290.2C290 45.2 289.7 45.6 289.3 46C288.9 46.4 288.3 46.8 287.6 47C286.9 47.3 286 47.4 284.9 47.4C283.5 47.4 282.3 47.1 281.2 46.5C280.2 45.8 279.3 44.9 278.8 43.8C278.2 42.7 277.9 41.3 277.9 39.9V29.1H282.5V39.5C282.5 40.9 282.8 41.9 283.5 42.6C284.2 43.3 285.1 43.6 286.4 43.6C287.8 43.6 288.9 43.1 289.7 42.2C290.5 41.3 290.9 39.9 290.9 38.3V29.1H295.5V50.4C295.5 51.6 295.1 52.6 294.4 53.3C293.7 54.1 292.7 54.4 291.5 54.4H280.1ZM308 47.6C306.2 47.6 304.6 47.2 303.2 46.5C301.8 45.8 300.6 44.7 299.8 43.3C299 41.9 298.6 40.3 298.6 38.3V37.7C298.6 35.8 299 34.1 299.8 32.7C300.6 31.3 301.8 30.3 303.2 29.5C304.6 28.8 306.2 28.4 308 28.4C309.8 28.4 311.4 28.8 312.8 29.5C314.2 30.2 315.4 31.3 316.2 32.7C317 34.1 317.4 35.7 317.4 37.7V38.3C317.4 40.2 317 41.9 316.2 43.3C315.4 44.7 314.2 45.7 312.8 46.5C311.4 47.3 309.8 47.6 308 47.6ZM308 43.5C309.4 43.5 310.6 43.1 311.5 42.2C312.4 41.3 312.9 40 312.9 38.3V37.9C312.9 36.2 312.4 34.9 311.5 34C310.6 33.1 309.4 32.6 308 32.6C306.6 32.6 305.4 33.1 304.5 34C303.6 34.9 303.1 36.2 303.1 37.9V38.3C303.1 40 303.6 41.3 304.5 42.2C305.4 43.1 306.6 43.5 308 43.5ZM320.6 47.1V21.6H325.2V47.1H320.6ZM334.8 47.6C333.5 47.6 332.4 47.4 331.3 46.9C330.3 46.4 329.5 45.8 328.9 44.9C328.3 44 328 43 328 41.7C328 40.5 328.3 39.4 328.9 38.6C329.5 37.8 330.3 37.1 331.4 36.7C332.5 36.3 333.7 36 335 36H339.9V35C339.9 34.2 339.6 33.5 339.1 32.9C338.6 32.3 337.7 32.1 336.6 32.1C335.5 32.1 334.6 32.4 334.1 32.9C333.5 33.4 333.2 34.1 333 34.9L328.8 33.5C329.1 32.6 329.6 31.7 330.2 31C330.9 30.2 331.7 29.6 332.8 29.1C333.9 28.6 335.2 28.4 336.8 28.4C339.2 28.4 341.1 29 342.4 30.2C343.8 31.4 344.5 33.1 344.5 35.4V42.1C344.5 42.8 344.8 43.2 345.5 43.2H347V47H343.9C343 47 342.3 46.8 341.7 46.3C341.1 45.8 340.8 45.3 340.8 44.6H340.1C340 44.9 339.8 45.3 339.4 45.8C339.1 46.3 338.5 46.7 337.8 47C337.1 47.4 336.1 47.6 334.8 47.6ZM335.6 43.9C336.9 43.9 337.9 43.5 338.7 42.8C339.5 42.1 339.9 41.1 339.9 39.9V39.5H335.3C334.5 39.5 333.8 39.7 333.3 40C332.8 40.4 332.6 40.9 332.6 41.5C332.6 42.1 332.9 42.7 333.4 43.1C333.9 43.7 334.6 43.9 335.6 43.9ZM366.8 47.6C363.6 47.6 361.1 46.7 359.3 45C357.5 43.2 356.5 40.7 356.5 37.4V31.3C356.5 28 357.4 25.5 359.3 23.8C361.1 22 363.6 21.1 366.8 21.1C369.9 21.1 372.3 22 374 23.7C375.7 25.4 376.6 27.7 376.6 30.7V30.9H371.9V30.5C371.9 29 371.5 27.8 370.6 26.8C369.8 25.8 368.5 25.3 366.8 25.3C365.1 25.3 363.8 25.8 362.8 26.9C361.8 27.9 361.3 29.4 361.3 31.2V37.5C361.3 39.3 361.8 40.7 362.8 41.8C363.8 42.8 365.1 43.4 366.8 43.4C368.5 43.4 369.8 42.9 370.6 41.9C371.4 40.9 371.9 39.7 371.9 38.2V37.5H376.6V38C376.6 41 375.7 43.3 374 45.1C372.4 46.8 370 47.6 366.8 47.6ZM379.8 47.1V21.6H384.4V31.2H385.1C385.3 30.8 385.6 30.4 386 30C386.4 29.6 387 29.3 387.6 29.1C388.3 28.8 389.2 28.7 390.3 28.7C391.7 28.7 392.9 29 394 29.7C395.1 30.3 395.9 31.2 396.5 32.4C397.1 33.5 397.4 34.8 397.4 36.3V47.1H392.8V36.7C392.8 35.3 392.5 34.3 391.8 33.6C391.1 32.9 390.2 32.6 389 32.6C387.6 32.6 386.5 33.1 385.7 34C384.9 34.9 384.5 36.2 384.5 37.9V47.1H379.8ZM401 47.1V29.1H405.6V47.1H401ZM403.3 26.9C402.5 26.9 401.8 26.6 401.2 26.1C400.6 25.6 400.4 24.9 400.4 24C400.4 23.1 400.7 22.4 401.2 21.9C401.8 21.4 402.5 21.1 403.3 21.1C404.1 21.1 404.9 21.4 405.4 21.9C406 22.4 406.2 23.1 406.2 24C406.2 24.9 405.9 25.6 405.4 26.1C404.8 26.7 404.1 26.9 403.3 26.9ZM418 47.6C416.3 47.6 414.7 47.2 413.2 46.5C411.8 45.8 410.7 44.7 409.9 43.3C409.1 41.9 408.7 40.2 408.7 38.3V37.8C408.7 35.8 409.1 34.2 409.9 32.8C410.7 31.4 411.8 30.4 413.2 29.6C414.6 28.9 416.2 28.5 418 28.5C419.7 28.5 421.2 28.8 422.4 29.4C423.6 30 424.6 30.8 425.4 31.9C426.2 32.9 426.7 34.1 426.9 35.5L422.5 36.4C422.4 35.7 422.2 35 421.8 34.4C421.5 33.8 421 33.4 420.3 33C419.7 32.7 418.9 32.5 418 32.5C417.1 32.5 416.2 32.7 415.5 33.1C414.8 33.5 414.2 34.1 413.8 34.9C413.4 35.7 413.2 36.6 413.2 37.8V38.2C413.2 39.3 413.4 40.3 413.8 41.1C414.2 41.9 414.8 42.5 415.5 42.9C416.3 43.3 417.1 43.5 418 43.5C419.4 43.5 420.4 43.1 421.1 42.4C421.8 41.7 422.3 40.7 422.5 39.6L426.9 40.7C426.6 42 426 43.2 425.3 44.2C424.5 45.2 423.6 46.1 422.3 46.7C421.2 47.3 419.7 47.6 418 47.6ZM436 47.6C434.7 47.6 433.6 47.4 432.5 46.9C431.5 46.4 430.7 45.8 430.1 44.9C429.5 44 429.2 43 429.2 41.7C429.2 40.5 429.5 39.4 430.1 38.6C430.7 37.8 431.5 37.1 432.6 36.7C433.7 36.3 434.9 36 436.2 36H441.1V35C441.1 34.2 440.8 33.5 440.3 32.9C439.8 32.3 438.9 32.1 437.8 32.1C436.7 32.1 435.8 32.4 435.3 32.9C434.7 33.4 434.4 34.1 434.2 34.9L430 33.5C430.3 32.6 430.8 31.7 431.4 31C432.1 30.2 432.9 29.6 434 29.1C435.1 28.6 436.4 28.4 438 28.4C440.4 28.4 442.3 29 443.6 30.2C444.9 31.4 445.7 33.1 445.7 35.4V42.1C445.7 42.8 446 43.2 446.7 43.2H448.2V47H445.1C444.2 47 443.5 46.8 442.9 46.3C442.3 45.9 442 45.3 442 44.6H441.3C441.2 44.9 441 45.3 440.6 45.8C440.3 46.3 439.7 46.7 439 47C438.2 47.4 437.2 47.6 436 47.6ZM436.8 43.9C438.1 43.9 439.1 43.5 439.9 42.8C440.7 42.1 441.1 41.1 441.1 39.9V39.5H436.5C435.7 39.5 435 39.7 434.5 40C434 40.4 433.8 40.9 433.8 41.5C433.8 42.1 434.1 42.7 434.6 43.1C435.1 43.7 435.8 43.9 436.8 43.9ZM448.8 38.2V37.6C448.8 35.7 449.2 34.1 449.9 32.8C450.7 31.4 451.6 30.4 452.9 29.7C454.2 29 455.5 28.6 457 28.6C458.6 28.6 459.9 28.9 460.7 29.5C461.5 30.1 462.2 30.7 462.6 31.3H463.3V29.1H467.8V50.4C467.8 51.6 467.4 52.6 466.7 53.3C466 54.1 465 54.4 463.8 54.4H451.7V50.4H462.2C462.9 50.4 463.2 50 463.2 49.3V44.6H462.5C462.3 45 461.9 45.4 461.5 45.8C461.1 46.2 460.5 46.5 459.8 46.8C459.1 47.1 458.2 47.2 457 47.2C455.5 47.2 454.1 46.8 452.9 46.1C451.7 45.4 450.7 44.3 449.9 43C449.1 41.7 448.8 40 448.8 38.2ZM458.3 43.2C459.7 43.2 460.9 42.8 461.8 41.9C462.7 41 463.2 39.7 463.2 38.1V37.7C463.2 36.1 462.7 34.8 461.8 33.9C460.9 33 459.7 32.6 458.3 32.6C456.9 32.6 455.7 33 454.8 33.9C453.9 34.8 453.4 36 453.4 37.7V38.1C453.4 39.7 453.9 41 454.8 41.9C455.7 42.7 456.9 43.2 458.3 43.2ZM480.1 47.6C478.3 47.6 476.7 47.2 475.3 46.5C473.9 45.8 472.7 44.7 471.9 43.3C471.1 41.9 470.7 40.3 470.7 38.3V37.7C470.7 35.8 471.1 34.1 471.9 32.7C472.7 31.3 473.9 30.3 475.3 29.5C476.7 28.7 478.3 28.4 480.1 28.4C481.9 28.4 483.5 28.8 484.9 29.5C486.3 30.2 487.5 31.3 488.3 32.7C489.1 34.1 489.5 35.7 489.5 37.7V38.3C489.5 40.2 489.1 41.9 488.3 43.3C487.5 44.7 486.3 45.7 484.9 46.5C483.5 47.3 481.9 47.6 480.1 47.6ZM480.1 43.5C481.5 43.5 482.7 43.1 483.6 42.2C484.5 41.3 485 40 485 38.3V37.9C485 36.2 484.5 34.9 483.6 34C482.7 33.1 481.5 32.6 480.1 32.6C478.7 32.6 477.5 33.1 476.6 34C475.7 34.9 475.2 36.2 475.2 37.9V38.3C475.2 40 475.7 41.3 476.6 42.2C477.5 43.1 478.7 43.5 480.1 43.5Z" fill="black"/>
<path d="M211.3 229.5V0" stroke="black" stroke-width="4"/>
<path d="M28.8999 61.9C27.1999 61.9 25.7 63.4 25.7 65.3C25.7 67.2 27.0999 68.7 28.8999 68.7C30.5999 68.7 32 67.2 32 65.3C32.1 63.4 30.6999 61.9 28.8999 61.9Z" fill="#231F20"/>
<path d="M28.9 56C30.5 56 31.8 54.6 31.8 52.9C31.8 51.2 30.5 49.8 28.9 49.8C27.3 49.8 26 51.2 26 52.9C26 54.6 27.3 56 28.9 56Z" fill="#231F20"/>
<path d="M75 51.3C71.6 51.3 70.8 57 70.8 59.6C70.8 62.2 71.6 68 75 68C78.4 68 79.3 62.2 79.3 59.6C79.3 56.9 78.5 51.3 75 51.3Z" fill="#231F20"/>
<path d="M55.7 92H60.8L59.7 90.1L55.7 92Z" fill="#231F20"/>
<path d="M144.9 135C153.3 139.1 153.3 148.6 153.3 146.2C153.3 132 148.8 133 149 124.1C149.2 115.1 158.3 115.9 158.3 115.9C161.9 116 163 118.3 163 118.3C163 118.3 161.2 117.9 160.5 118.9C160.5 118.9 157.8 121 162.7 133.1C163.7 135.6 168 144.1 162.8 150.3C159.1 154.7 153.2 153.1 153.2 153.1C152.8 155.4 152.6 156.6 152.6 156.6H156.9C160.8 156.8 161 161.3 161 161.3V180.3L158 183.4H148.1C147.9 178.7 153.7 176.7 153.7 176.7V168.5H144.5C139.6 168.1 137 158.3 137 158.3L133.4 158.7C133.2 159.3 138.4 169.3 138.4 169.3L127.8 179.9V183H116.2C115.6 180.1 121.2 177.5 121.2 177.5L128.5 169.3C129.4 168.2 128.8 167.2 127.5 166.7C126.1 166.2 125 165.9 123.4 165.3C121.8 164.7 115.2 160.3 118 151.9C120.7 143.6 129.9 147 129.9 146C129.9 145 125 133.3 125 133.3L128.9 127.2L124.2 130.3L111.9 128C110.6 139 105.7 136.2 105.7 136.2V128C105.7 128 105.9 122.6 110.6 121C116.2 119 120.1 120.2 121.8 119.8C123.5 119.4 123 117.8 123 117.8L115.6 118L109.1 112.3L105.5 111.9C99 110.7 101.4 105.4 101.4 105.4H110.7C114.2 105.4 123.4 112.4 123.4 112.4C123.4 112.4 124.7 104.6 117.8 101.8C110.9 99.1 112.4 96.9 112.4 96.9L118.9 99.2C118.9 99.2 119.7 98.4 118.5 96.7C117.9 95.8 112.7 93.8 112.7 93.8C108.6 92.2 109.9 88.7 109.9 88.7L117.2 89.5C118.9 87.9 118.7 87.7 121.1 87.4C123.5 87 127.3 90.5 126.9 89.4C126.5 88.2 126.2 84.7 125.8 81.2C125.5 78 135.3 92.7 135.3 92.7C148.4 118 144.9 135 144.9 135ZM109.7 149V163.7C109.7 163.7 109.9 171.4 103.8 177.8C97.4 184.5 90.2 183.8 90.1 183.8C90 183.8 82.8 184.5 76.4 177.8C70.2 171.3 70.5 163.7 70.5 163.7V149C70.5 149 68.8 148.5 68.7 146.7C68.6 144.4 70.9 144.8 70.9 144.8H75.5C75.3 149.8 78.3 149.2 78.3 149.2C81.5 149.3 80.8 144.8 80.8 144.8H99.5C99.5 144.8 98.8 149.4 102 149.2C102 149.2 105 149.8 104.8 144.8H109.4C109.4 144.8 111.7 144.4 111.6 146.7C111.4 148.5 109.7 149 109.7 149ZM54.8 133.3C54.8 133.3 49.9 145 49.9 146C49.9 147 59.1 143.6 61.9 151.9C64.7 160.3 58.1 164.7 56.5 165.3C54.9 165.9 53.8 166.3 52.4 166.7C51.1 167.1 50.5 168.2 51.4 169.3L58.7 177.5C58.7 177.5 64.3 180 63.7 183H52.1V179.9L41.5 169.2C41.5 169.2 46.7 159.2 46.5 158.6L43 158.2C43 158.2 40.4 168 35.5 168.4H26.3V176.6C26.3 176.6 32.1 178.6 31.9 183.3H22L19 180.2V161.2C19 161.2 19.2 156.7 23.1 156.5H27.4C27.4 156.5 27.2 155.3 26.8 153C26.8 153 20.9 154.6 17.2 150.2C12 144 16.3 135.4 17.3 133C22.2 120.8 19.5 118.8 19.5 118.8C18.8 117.8 17 118.2 17 118.2C17 118.2 18.1 115.9 21.7 115.8C21.7 115.8 30.9 115 31 124C31.2 133 26.7 132 26.7 146.1C26.7 148.6 26.7 139.1 35.1 134.9C35.1 134.9 31.6 117.9 44.3 92.6C44.3 92.6 54.2 77.9 53.8 81.1C53.4 84.6 53.1 88.1 52.7 89.3C52.3 90.5 56.1 87 58.5 87.3C60.9 87.7 60.7 87.9 62.4 89.4L69.7 88.6C69.7 88.6 71 92.1 66.9 93.7C66.9 93.7 61.7 95.7 61.1 96.6C60 98.4 60.7 99.1 60.7 99.1L67.2 96.8C67.2 96.8 68.7 99 61.8 101.7C54.9 104.4 56.2 112.3 56.2 112.3C56.2 112.3 65.4 105.3 68.9 105.3H78.2C78.2 105.3 80.6 110.6 74.1 111.8L70.5 112.2L64 117.9L56.6 117.7C56.6 117.7 56.1 119.3 57.8 119.7C59.5 120.1 63.4 118.9 69 120.9C73.7 122.5 73.9 127.9 73.9 127.9V136.1C73.9 136.1 69 138.8 67.7 127.9L55.4 130.2L50.7 127.1L54.8 133.3ZM14.4 73.8H7.7V52.1H4.9L6 45.9H14.3V73.8H14.4ZM20 52.7C20 47.4 24.5 44.8 29 44.8C33.5 44.8 38 47.4 38 52.7C38 55.6 36.3 58.1 33.8 59V59.1C36.9 60.2 39 62.7 39 66.3C39 72 33.5 74.6 28.9 74.6C24.3 74.6 18.8 72 18.8 66.3C18.8 62.7 20.9 60.2 24 59.1V59C21.7 58.1 20 55.6 20 52.7ZM42.5 52.8V46.1H64.5L49.8 73.7H41.5L53.2 52.8H42.5ZM75 45.1C82.6 45.1 85.9 52.6 85.9 59.6C85.9 66.6 82.7 74.1 75 74.1C67.4 74.1 64.1 66.6 64.1 59.6C64.2 52.6 67.4 45.1 75 45.1ZM89.9 86.1C89.9 86.1 90 86.1 90 86.2L90.1 86.1C91.1 86.1 91.9 87 91.9 88C91.9 88.7 91.5 89.3 91 89.7V127.7L103 140.5V144.6H101.2V141.4L90 129.4L78.8 141.4V144.6H77V140.5L89 127.7V89.7C88.5 89.4 88.1 88.8 88.1 88C88.1 87 88.9 86.1 89.9 86.1ZM180 24.7L128.9 73.8H116L180 12.3V0L103.1 73.8H90.2L167.6 0H154.7L90.2 61.5V49.2L141.8 0H128.9L90.2 36.9V24.6L116 0H103.1L90.2 12.3V0H0V150.2C0 205.3 90 228.5 90 228.5C90 228.5 180 205.4 180 150.2V73.8H167.7L180 61.5V49.2L154.8 73.8H141.9L180 36.9V24.7Z" fill="#231F20"/>
<path d="M124.3 92H119.2L120.3 90.1L124.3 92Z" fill="#231F20"/>
</svg>
