<svg width="417" height="115" viewBox="0 0 417 115" fill="none" xmlns="http://www.w3.org/2000/svg">
<path d="M130.578 65.5926C126.933 65.5926 124.086 64.5905 121.939 62.5861C119.792 60.5316 118.743 57.6253 118.743 53.817V46.7517C118.743 42.9434 119.792 40.0371 121.939 38.0327C124.086 35.9783 126.933 34.9761 130.578 34.9761C134.173 34.9761 136.969 35.9783 138.917 37.9826C140.914 39.9369 141.913 42.6427 141.913 46.1003V46.3508H136.47V45.9499C136.47 44.1961 135.971 42.7931 135.022 41.6406C134.073 40.5382 132.625 39.9369 130.628 39.9369C128.68 39.9369 127.132 40.5382 126.034 41.7408C124.935 42.9434 124.336 44.597 124.336 46.6515V53.8671C124.336 55.9216 124.885 57.5752 126.034 58.7778C127.132 59.9804 128.68 60.5817 130.628 60.5817C132.625 60.5817 134.073 60.0305 135.022 58.878C136.021 57.7255 136.47 56.2724 136.47 54.5687V53.817H141.913V54.4183C141.913 57.8759 140.914 60.5817 138.917 62.5861C136.969 64.6406 134.223 65.5926 130.578 65.5926ZM154.846 65.5926C152.798 65.5926 150.951 65.1417 149.353 64.2898C147.805 63.3878 146.557 62.1351 145.658 60.5316C144.809 58.9281 144.36 56.9739 144.36 54.8192V54.3181C144.36 52.1133 144.809 50.2593 145.658 48.6558C146.507 47.0523 147.755 45.7996 149.303 44.8976C150.851 43.9957 152.699 43.5447 154.746 43.5447C156.793 43.5447 158.541 43.9957 160.089 44.9478C161.587 45.8497 162.785 47.1024 163.634 48.756C164.483 50.3595 164.882 52.2135 164.882 54.3682V56.1722H149.752C149.802 57.6253 150.352 58.7778 151.35 59.6798C152.349 60.5817 153.597 61.0327 155.045 61.0327C156.543 61.0327 157.642 60.7321 158.341 60.0807C159.04 59.4292 159.589 58.7277 159.939 57.926L164.283 60.1809C163.884 60.9325 163.335 61.7342 162.586 62.5861C161.836 63.438 160.888 64.1395 159.639 64.7909C158.291 65.292 156.743 65.5926 154.846 65.5926ZM149.752 52.1634H159.49C159.39 50.9608 158.89 50.0088 158.041 49.2571C157.193 48.5055 156.094 48.1547 154.746 48.1547C153.298 48.1547 152.199 48.5055 151.35 49.2571C150.452 50.0088 149.952 50.9608 149.752 52.1634ZM168.278 65.0414V44.146H173.521V46.902H174.27C174.62 46.1504 175.219 45.4989 176.168 44.8475C177.066 44.1961 178.465 43.8454 180.362 43.8454C181.96 43.8454 183.408 44.2462 184.606 44.9979C185.855 45.7495 186.804 46.7517 187.453 48.0545C188.102 49.3573 188.451 50.8606 188.451 52.6144V65.0915H183.158V53.0654C183.158 51.512 182.759 50.3094 181.96 49.5077C181.211 48.7059 180.112 48.3051 178.664 48.3051C177.066 48.3051 175.768 48.8563 174.869 49.9586C173.97 51.0109 173.521 52.5142 173.521 54.4685V65.0915H168.278V65.0414ZM200.286 65.0414C198.938 65.0414 197.789 64.6406 196.94 63.7887C196.091 62.9369 195.692 61.7844 195.692 60.3312V48.5556H190.499V44.146H195.692V37.682H200.985V44.146H206.677V48.5055H200.985V59.3791C200.985 60.231 201.384 60.6318 202.183 60.6318H206.228V64.9913H200.286V65.0414ZM218.911 65.5926C216.864 65.5926 215.016 65.1417 213.418 64.2898C211.871 63.3878 210.622 62.1351 209.723 60.5316C208.874 58.9281 208.425 56.9739 208.425 54.8192V54.3181C208.425 52.1133 208.874 50.2593 209.723 48.6558C210.572 47.0523 211.821 45.7996 213.369 44.8976C214.916 43.9957 216.764 43.5447 218.811 43.5447C220.859 43.5447 222.606 43.9957 224.154 44.9478C225.652 45.8497 226.851 47.1024 227.7 48.756C228.548 50.3595 228.948 52.2135 228.948 54.3682V56.1722H213.818C213.868 57.6253 214.417 58.7778 215.416 59.6798C216.415 60.5817 217.663 61.0327 219.111 61.0327C220.609 61.0327 221.708 60.7321 222.407 60.0807C223.106 59.4292 223.655 58.7277 224.004 57.926L228.349 60.1809C227.949 60.9325 227.4 61.7342 226.651 62.5861C225.902 63.438 224.953 64.1395 223.705 64.7909C222.407 65.292 220.809 65.5926 218.911 65.5926ZM213.868 52.1634H223.605C223.505 50.9608 223.006 50.0088 222.157 49.2571C221.308 48.5055 220.209 48.1547 218.861 48.1547C217.413 48.1547 216.315 48.5055 215.466 49.2571C214.567 50.0088 214.068 50.9608 213.868 52.1634ZM232.044 65.0414V44.146H237.237V46.5011H237.986C238.286 45.6493 238.785 45.048 239.484 44.6471C240.233 44.2462 241.032 44.0458 241.981 44.0458H244.477V48.756H241.931C240.583 48.756 239.484 49.1068 238.635 49.8584C237.786 50.56 237.337 51.6624 237.337 53.1656V65.0414H232.044ZM257.011 65.0414V35.5774H275.487V40.6384H262.554V47.7539H274.488V52.8149H262.554V65.0414H257.011V65.0414ZM288.02 65.5926C285.973 65.5926 284.075 65.1918 282.427 64.3399C280.78 63.4881 279.481 62.2854 278.533 60.682C277.584 59.0785 277.084 57.1743 277.084 54.9194V54.268C277.084 52.0131 277.584 50.109 278.533 48.5055C279.481 46.902 280.78 45.6994 282.427 44.8475C284.075 43.9957 285.923 43.5948 288.02 43.5948C290.117 43.5948 291.965 43.9957 293.613 44.8475C295.261 45.6994 296.559 46.902 297.508 48.5055C298.456 50.109 298.956 52.0131 298.956 54.268V54.9194C298.956 57.1743 298.456 59.0785 297.508 60.682C296.559 62.2854 295.261 63.4881 293.613 64.3399C291.965 65.1918 290.117 65.5926 288.02 65.5926ZM288.02 60.8824C289.618 60.8824 290.966 60.3813 292.065 59.329C293.113 58.2767 293.663 56.7234 293.663 54.7691V54.3682C293.663 52.414 293.113 50.9107 292.065 49.8584C291.016 48.8061 289.668 48.2549 288.02 48.2549C286.422 48.2549 285.074 48.8061 283.975 49.8584C282.927 50.9107 282.377 52.414 282.377 54.3682V54.7691C282.377 56.7234 282.927 58.2266 283.975 59.329C285.074 60.3813 286.422 60.8824 288.02 60.8824ZM302.551 65.0414V44.146H307.744V46.5011H308.493C308.793 45.6493 309.292 45.048 309.991 44.6471C310.74 44.2462 311.539 44.0458 312.488 44.0458H314.984V48.756H312.388C311.04 48.756 309.941 49.1068 309.092 49.8584C308.243 50.56 307.794 51.6624 307.794 53.1656V65.0414H302.551ZM130.328 104.277C126.683 104.277 123.837 103.275 121.689 101.27C119.542 99.2157 118.494 96.3094 118.494 92.5011V85.4358C118.494 81.6275 119.542 78.7212 121.689 76.7168C123.837 74.6624 126.683 73.6602 130.328 73.6602C133.923 73.6602 136.72 74.6623 138.667 76.6667C140.664 78.621 141.663 81.3268 141.663 84.7844V85.0349H136.22V84.634C136.22 82.8802 135.721 81.4772 134.772 80.3247C133.823 79.2223 132.375 78.621 130.378 78.621C128.431 78.621 126.883 79.2223 125.784 80.4249C124.685 81.6275 124.086 83.2811 124.086 85.3356V92.5512C124.086 94.6057 124.636 96.2593 125.784 97.4619C126.883 98.6645 128.431 99.2658 130.378 99.2658C132.375 99.2658 133.823 98.7146 134.772 97.5621C135.771 96.4096 136.22 94.9565 136.22 93.2528V92.5011H141.663V93.1024C141.663 96.56 140.664 99.2658 138.667 101.27C136.72 103.275 133.923 104.277 130.328 104.277ZM145.059 103.675V82.78H150.252V85.1351H151.001C151.3 84.2833 151.8 83.682 152.499 83.2811C153.248 82.8802 154.047 82.6798 154.996 82.6798H157.492V87.39H154.896C153.547 87.39 152.449 87.7408 151.6 88.4924C150.751 89.1939 150.302 90.2963 150.302 91.7996V103.675H145.059ZM161.187 103.675V82.78H166.48V103.675H161.187ZM163.834 80.3247C162.885 80.3247 162.086 80.024 161.387 79.4227C160.738 78.8214 160.438 77.9695 160.438 76.9674C160.438 75.9652 160.738 75.1634 161.387 74.512C162.036 73.9107 162.885 73.6101 163.834 73.6101C164.833 73.6101 165.631 73.9107 166.281 74.512C166.93 75.1133 167.229 75.9652 167.229 76.9674C167.229 77.9695 166.93 78.7713 166.281 79.4227C165.631 80.0741 164.833 80.3247 163.834 80.3247ZM170.325 103.675V82.78H175.518V85.0349H176.267C176.617 84.3334 177.216 83.7321 178.065 83.231C178.914 82.6798 180.013 82.4292 181.361 82.4292C182.859 82.4292 184.007 82.7299 184.906 83.3312C185.805 83.8824 186.504 84.634 186.953 85.5861H187.702C188.202 84.6841 188.851 83.9325 189.7 83.3312C190.549 82.7299 191.797 82.4292 193.395 82.4292C194.693 82.4292 195.842 82.7299 196.89 83.2811C197.939 83.8323 198.788 84.634 199.387 85.7865C200.036 86.8889 200.336 88.292 200.336 89.9456V103.675H195.043V90.3465C195.043 89.1939 194.743 88.3421 194.144 87.7909C193.545 87.1896 192.746 86.8889 191.647 86.8889C190.449 86.8889 189.5 87.2898 188.851 88.0916C188.202 88.8432 187.902 89.9456 187.902 91.3987V103.726H182.609V90.3966C182.609 89.244 182.309 88.3922 181.71 87.841C181.111 87.2397 180.312 86.939 179.214 86.939C178.015 86.939 177.066 87.3399 176.417 88.1416C175.768 88.8933 175.469 89.9957 175.469 91.4488V103.776H170.325V103.675ZM204.88 103.675V82.78H210.173V103.675H204.88ZM207.526 80.3247C206.577 80.3247 205.779 80.024 205.079 79.4227C204.43 78.8214 204.131 77.9695 204.131 76.9674C204.131 75.9652 204.43 75.1634 205.079 74.512C205.729 73.9107 206.577 73.6101 207.526 73.6101C208.525 73.6101 209.324 73.9107 209.973 74.512C210.622 75.1133 210.922 75.9652 210.922 76.9674C210.922 77.9695 210.622 78.7713 209.973 79.4227C209.324 80.024 208.475 80.3247 207.526 80.3247ZM214.767 103.675V82.78H219.96V85.536H220.709C221.058 84.7844 221.658 84.1329 222.606 83.4815C223.505 82.8301 224.903 82.4793 226.801 82.4793C228.399 82.4793 229.847 82.8802 231.045 83.6318C232.294 84.3835 233.242 85.3857 233.891 86.6885C234.541 87.9913 234.89 89.4946 234.89 91.2484V103.726H229.597V91.6994C229.597 90.146 229.198 88.9434 228.399 88.1416C227.65 87.3399 226.551 86.939 225.103 86.939C223.505 86.939 222.207 87.4902 221.308 88.5926C220.409 89.6449 219.96 91.1482 219.96 93.1024V103.726H214.767V103.675ZM245.826 104.277C244.328 104.277 243.029 104.026 241.831 103.525C240.633 102.974 239.734 102.222 239.035 101.27C238.386 100.268 238.036 99.0153 238.036 97.6122C238.036 96.1591 238.386 95.0066 239.035 94.0545C239.734 93.0523 240.683 92.3508 241.881 91.8497C243.129 91.3486 244.527 91.0981 246.075 91.0981H251.768V89.8955C251.768 88.8933 251.468 88.0915 250.869 87.4902C250.27 86.8388 249.271 86.5382 247.923 86.5382C246.625 86.5382 245.626 86.8388 244.977 87.4401C244.328 88.0414 243.928 88.7931 243.728 89.7451L238.885 88.0916C239.234 87.0393 239.734 86.0371 240.483 85.1852C241.232 84.2833 242.23 83.5817 243.479 83.0305C244.727 82.4793 246.275 82.1787 248.073 82.1787C250.819 82.1787 252.966 82.8802 254.564 84.2332C256.162 85.5861 256.961 87.5905 256.961 90.1961V97.963C256.961 98.8149 257.36 99.2157 258.159 99.2157H259.857V103.575H256.312C255.263 103.575 254.414 103.325 253.765 102.824C253.116 102.322 252.767 101.621 252.767 100.819V100.769H251.968C251.868 101.12 251.618 101.571 251.219 102.122C250.819 102.673 250.22 103.124 249.371 103.575C248.522 104.026 247.274 104.277 245.826 104.277ZM246.725 99.9674C248.223 99.9674 249.421 99.5665 250.32 98.7647C251.269 97.9129 251.768 96.8105 251.768 95.4576V95.0567H246.425C245.426 95.0567 244.677 95.2571 244.128 95.7081C243.579 96.1591 243.279 96.7103 243.279 97.4619C243.279 98.2135 243.579 98.8149 244.178 99.3159C244.777 99.7168 245.626 99.9674 246.725 99.9674ZM262.354 103.675V74.2114H267.647V103.675H262.354ZM291.016 104.277C288.02 104.277 285.573 103.425 283.826 101.771C282.078 100.118 281.179 97.8127 281.179 94.8061V92.0502H286.722V94.8061C286.722 96.109 287.071 97.1613 287.82 97.9129C288.569 98.6645 289.568 99.0153 290.866 99.0153C292.115 99.0153 293.063 98.6645 293.713 97.9129C294.412 97.1613 294.761 96.1591 294.761 94.8061V79.2223H289.718V74.2114H303.649V79.2724H300.304V94.8563C300.304 97.9129 299.455 100.268 297.807 101.872C296.159 103.475 293.912 104.277 291.016 104.277ZM311.739 104.026C310.141 104.026 308.693 103.675 307.444 102.924C306.246 102.172 305.297 101.12 304.648 99.817C303.999 98.5142 303.649 96.9608 303.649 95.2571V82.78H308.942V94.8061C308.942 96.3595 309.342 97.5621 310.091 98.3639C310.89 99.1656 311.988 99.5665 313.387 99.5665C314.984 99.5665 316.283 99.0153 317.182 97.963C318.08 96.8606 318.53 95.3573 318.53 93.4031V82.78H323.823V103.675H318.63V100.919H317.831C317.481 101.621 316.882 102.322 315.933 102.974C315.034 103.675 313.636 104.026 311.739 104.026ZM336.057 104.277C333.36 104.277 331.113 103.675 329.366 102.523C327.618 101.32 326.569 99.6667 326.22 97.4619L331.063 96.2092C331.263 97.2114 331.563 97.963 332.012 98.5142C332.511 99.0654 333.061 99.4663 333.71 99.7168C334.409 99.9173 335.158 100.068 335.957 100.068C337.205 100.068 338.104 99.8671 338.703 99.4162C339.302 98.9652 339.602 98.414 339.602 97.7626C339.602 97.1112 339.302 96.6101 338.753 96.3094C338.204 95.9587 337.305 95.658 336.057 95.4074L334.858 95.207C333.41 94.9064 332.062 94.5556 330.864 94.0545C329.665 93.5534 328.716 92.8519 327.967 92C327.218 91.1482 326.869 89.9957 326.869 88.6427C326.869 86.5883 327.618 84.9848 329.116 83.8824C330.614 82.78 332.611 82.1787 335.058 82.1787C337.355 82.1787 339.302 82.6798 340.85 83.7321C342.398 84.7844 343.397 86.1373 343.846 87.7909L338.953 89.2942C338.753 88.2419 338.254 87.4902 337.555 87.0393C336.906 86.5883 336.057 86.3878 335.058 86.3878C334.059 86.3878 333.26 86.5883 332.761 86.939C332.212 87.2898 331.962 87.7408 331.962 88.3922C331.962 89.0436 332.262 89.5948 332.811 89.8955C333.36 90.1961 334.109 90.4467 335.058 90.597L336.256 90.7974C337.804 91.0981 339.252 91.4488 340.501 91.9499C341.799 92.4009 342.798 93.0523 343.497 93.9042C344.246 94.756 344.645 95.9085 344.645 97.3617C344.645 99.5665 343.846 101.27 342.249 102.473C340.85 103.675 338.703 104.277 336.057 104.277ZM355.381 103.675C354.033 103.675 352.884 103.275 352.036 102.423C351.187 101.571 350.787 100.418 350.787 98.9652V87.1896H345.594V82.8301H350.787V76.366H356.08V82.8301H361.773V87.1896H356.08V98.0632C356.08 98.9151 356.48 99.3159 357.279 99.3159H361.323V103.675H355.381ZM365.268 103.675V82.78H370.561V103.675H365.268ZM367.915 80.3247C366.966 80.3247 366.167 80.024 365.468 79.4227C364.819 78.8214 364.519 77.9695 364.519 76.9674C364.519 75.9652 364.819 75.1634 365.468 74.512C366.117 73.9107 366.966 73.6101 367.915 73.6101C368.913 73.6101 369.712 73.9107 370.361 74.512C371.011 75.1133 371.31 75.9652 371.31 76.9674C371.31 77.9695 371.011 78.7713 370.361 79.4227C369.712 80.024 368.913 80.3247 367.915 80.3247ZM384.043 104.076C382.046 104.076 380.198 103.675 378.551 102.824C376.953 101.972 375.654 100.769 374.706 99.1656C373.757 97.5621 373.258 95.6079 373.258 93.353V92.7517C373.258 90.4968 373.757 88.5425 374.706 86.939C375.654 85.3356 376.953 84.1329 378.551 83.2811C380.198 82.4292 382.046 82.0284 384.043 82.0284C386.041 82.0284 387.739 82.3791 389.137 83.0807C390.585 83.7822 391.733 84.7342 392.582 85.987C393.481 87.1896 394.08 88.5926 394.33 90.0959L389.237 91.1983C389.137 90.3464 388.887 89.5948 388.488 88.9434C388.088 88.292 387.539 87.7408 386.79 87.3399C386.091 86.939 385.192 86.7386 384.143 86.7386C383.095 86.7386 382.096 86.9891 381.247 87.4401C380.398 87.8911 379.749 88.5926 379.25 89.4946C378.75 90.3966 378.551 91.499 378.551 92.8018V93.2027C378.551 94.5055 378.8 95.658 379.25 96.56C379.749 97.4619 380.448 98.1634 381.247 98.6144C382.096 99.0654 383.095 99.2658 384.143 99.2658C385.741 99.2658 386.94 98.865 387.739 98.0632C388.587 97.2114 389.087 96.109 389.336 94.756L394.43 95.9586C394.08 97.4619 393.431 98.8149 392.532 100.017C391.683 101.22 390.535 102.172 389.087 102.874C387.739 103.726 386.041 104.076 384.043 104.076ZM406.963 104.427C404.916 104.427 403.068 103.976 401.47 103.124C399.922 102.222 398.674 100.97 397.775 99.3661C396.926 97.7626 396.477 95.8083 396.477 93.6536V93.1525C396.477 90.9477 396.926 89.0937 397.775 87.4902C398.624 85.8868 399.873 84.634 401.42 83.7321C402.968 82.8301 404.816 82.3791 406.863 82.3791C408.911 82.3791 410.658 82.8301 412.206 83.7822C413.704 84.6841 414.903 85.9369 415.752 87.5905C416.6 89.1939 417 91.048 417 93.2027V95.0066H401.87C401.92 96.4597 402.469 97.6122 403.468 98.5142C404.466 99.4162 405.715 99.8672 407.163 99.8672C408.661 99.8672 409.759 99.5665 410.459 98.9151C411.158 98.2637 411.707 97.5621 412.056 96.7604L416.401 99.0153C416.001 99.7669 415.452 100.569 414.703 101.421C413.954 102.272 413.005 102.974 411.757 103.625C410.459 104.126 408.911 104.427 406.963 104.427ZM401.92 90.9979H411.657C411.557 89.7952 411.058 88.8432 410.209 88.0916C409.36 87.3399 408.261 86.9891 406.913 86.9891C405.465 86.9891 404.367 87.3399 403.518 88.0916C402.619 88.8432 402.12 89.7952 401.92 90.9979Z" fill="white"/>
<path d="M118.893 23.6013V10.8235H121.29V21.3965H127.083V23.6013H118.893ZM132.575 23.8519C131.676 23.8519 130.878 23.6514 130.178 23.3007C129.479 22.9499 128.88 22.3987 128.481 21.6972C128.081 20.9957 127.881 20.1939 127.881 19.1917V18.8911C127.881 17.939 128.081 17.0872 128.481 16.3856C128.88 15.6841 129.479 15.183 130.178 14.7821C130.878 14.4314 131.676 14.231 132.575 14.231C133.474 14.231 134.273 14.4314 134.972 14.7821C135.671 15.1329 136.27 15.6841 136.67 16.3856C137.069 17.0872 137.269 17.8889 137.269 18.8911V19.1917C137.269 20.1438 137.069 20.9957 136.67 21.6972C136.27 22.3987 135.671 22.8998 134.972 23.3007C134.273 23.7015 133.474 23.8519 132.575 23.8519ZM132.575 21.7974C133.274 21.7974 133.874 21.597 134.323 21.146C134.772 20.695 135.022 20.0436 135.022 19.1917V18.9913C135.022 18.1394 134.772 17.488 134.323 17.037C133.874 16.5861 133.274 16.3355 132.575 16.3355C131.876 16.3355 131.277 16.5861 130.828 17.037C130.378 17.488 130.128 18.1394 130.128 18.9913V19.1917C130.128 20.0436 130.378 20.695 130.828 21.146C131.277 21.597 131.876 21.7974 132.575 21.7974ZM139.866 27.2593V25.2549H144.759C145.109 25.2549 145.259 25.0545 145.259 24.7037V22.4488H144.909C144.809 22.6492 144.659 22.8497 144.46 23.0501C144.26 23.2506 143.96 23.451 143.611 23.5512C143.261 23.7015 142.812 23.7516 142.262 23.7516C141.563 23.7516 140.964 23.6013 140.415 23.3007C139.916 22.9499 139.466 22.4989 139.216 21.9477C138.917 21.3965 138.767 20.695 138.767 19.9935V14.5817H141.064V19.793C141.064 20.4946 141.214 20.9957 141.563 21.3464C141.913 21.6972 142.362 21.8475 143.011 21.8475C143.711 21.8475 144.26 21.597 144.659 21.146C145.059 20.695 145.259 19.9935 145.259 19.1917V14.5817H147.556V25.2549C147.556 25.8562 147.356 26.3573 147.006 26.7081C146.657 27.1089 146.157 27.2593 145.558 27.2593H139.866ZM153.797 23.8519C152.898 23.8519 152.1 23.6514 151.4 23.3007C150.701 22.9499 150.102 22.3987 149.703 21.6972C149.303 20.9957 149.103 20.1939 149.103 19.1917V18.8911C149.103 17.939 149.303 17.0872 149.703 16.3856C150.102 15.6841 150.701 15.183 151.4 14.7821C152.1 14.4314 152.898 14.231 153.797 14.231C154.696 14.231 155.495 14.4314 156.194 14.7821C156.893 15.1329 157.492 15.6841 157.892 16.3856C158.291 17.0872 158.491 17.8889 158.491 18.8911V19.1917C158.491 20.1438 158.291 20.9957 157.892 21.6972C157.492 22.3987 156.893 22.8998 156.194 23.3007C155.495 23.7015 154.696 23.8519 153.797 23.8519ZM153.797 21.7974C154.496 21.7974 155.096 21.597 155.545 21.146C155.994 20.695 156.244 20.0436 156.244 19.1917V18.9913C156.244 18.1394 155.994 17.488 155.545 17.037C155.096 16.5861 154.496 16.3355 153.797 16.3355C153.098 16.3355 152.499 16.5861 152.05 17.037C151.6 17.488 151.35 18.1394 151.35 18.9913V19.1917C151.35 20.0436 151.6 20.695 152.05 21.146C152.499 21.597 153.098 21.7974 153.797 21.7974ZM160.089 23.6013V10.8235H162.386V23.6013H160.089ZM167.18 23.8519C166.53 23.8519 165.981 23.7516 165.432 23.5011C164.933 23.2506 164.533 22.9499 164.234 22.4989C163.934 22.0479 163.784 21.5469 163.784 20.8954C163.784 20.2941 163.934 19.7429 164.234 19.3421C164.533 18.9412 164.933 18.5904 165.482 18.39C166.031 18.1896 166.63 18.0392 167.279 18.0392H169.726V17.5381C169.726 17.1373 169.576 16.7865 169.327 16.4859C169.077 16.1852 168.628 16.085 168.078 16.085C167.529 16.085 167.08 16.2353 166.83 16.4859C166.53 16.7364 166.381 17.0872 166.281 17.488L164.184 16.7865C164.333 16.3355 164.583 15.8845 164.883 15.5338C165.232 15.1329 165.632 14.8323 166.181 14.5817C166.73 14.3312 167.379 14.231 168.178 14.231C169.377 14.231 170.325 14.5316 170.975 15.1329C171.674 15.7342 172.023 16.5861 172.023 17.7386V21.0959C172.023 21.4466 172.173 21.6471 172.523 21.6471H173.272V23.5512H171.724C171.274 23.5512 170.925 23.451 170.625 23.2004C170.325 22.9499 170.176 22.6994 170.176 22.3486H169.826C169.776 22.4989 169.676 22.6994 169.477 22.9499C169.327 23.2004 169.027 23.4009 168.678 23.5512C168.328 23.7516 167.829 23.8519 167.18 23.8519ZM167.579 21.9978C168.228 21.9978 168.728 21.7974 169.127 21.4466C169.527 21.0959 169.726 20.5948 169.726 19.9935V19.793H167.429C167.03 19.793 166.68 19.8933 166.431 20.0436C166.181 20.244 166.081 20.4946 166.081 20.7952C166.081 21.0959 166.231 21.3965 166.481 21.597C166.73 21.8976 167.08 21.9978 167.579 21.9978ZM183.159 23.8519C181.561 23.8519 180.312 23.4009 179.413 22.549C178.515 21.6471 178.015 20.3944 178.015 18.7408V15.6841C178.015 14.0305 178.465 12.7778 179.413 11.9259C180.312 11.024 181.561 10.573 183.159 10.573C184.706 10.573 185.905 11.024 186.754 11.8758C187.603 12.7277 188.052 13.8802 188.052 15.3835V15.4837H185.705V15.2832C185.705 14.5316 185.505 13.9303 185.056 13.4292C184.657 12.9281 184.007 12.6776 183.159 12.6776C182.31 12.6776 181.661 12.9281 181.161 13.4793C180.662 13.9804 180.412 14.732 180.412 15.634V18.7909C180.412 19.6928 180.662 20.3943 181.161 20.9455C181.661 21.4466 182.31 21.7473 183.159 21.7473C184.007 21.7473 184.657 21.4967 185.056 20.9957C185.456 20.4946 185.705 19.8933 185.705 19.1416V18.7909H188.052V19.0414C188.052 20.5447 187.603 21.6972 186.754 22.5991C185.955 23.451 184.756 23.8519 183.159 23.8519ZM189.65 23.6013V10.8235H191.947V15.634H192.296C192.396 15.4336 192.546 15.2331 192.746 15.0327C192.946 14.8323 193.245 14.6819 193.545 14.5817C193.894 14.4314 194.344 14.3813 194.893 14.3813C195.592 14.3813 196.191 14.5316 196.741 14.8824C197.29 15.183 197.689 15.634 197.989 16.2353C198.289 16.7865 198.438 17.4379 198.438 18.1896V23.6013H196.141V18.39C196.141 17.6885 195.992 17.1874 195.642 16.8366C195.293 16.4859 194.843 16.3355 194.244 16.3355C193.545 16.3355 192.996 16.5861 192.596 17.037C192.197 17.488 191.997 18.1394 191.997 18.9913V23.6013H189.65ZM200.236 23.6013V14.5817H202.533V23.6013H200.236ZM201.384 13.4793C200.985 13.4793 200.635 13.329 200.336 13.0784C200.036 12.8279 199.936 12.4771 199.936 12.0262C199.936 11.5752 200.086 11.2244 200.336 10.9739C200.635 10.7233 200.985 10.573 201.384 10.573C201.784 10.573 202.183 10.7233 202.433 10.9739C202.733 11.2244 202.833 11.5752 202.833 12.0262C202.833 12.4771 202.683 12.8279 202.433 13.0784C202.134 13.3791 201.784 13.4793 201.384 13.4793ZM208.725 23.8519C207.876 23.8519 207.077 23.6514 206.328 23.3007C205.629 22.9499 205.08 22.3987 204.68 21.6972C204.281 20.9957 204.081 20.1438 204.081 19.1917V18.9412C204.081 17.939 204.281 17.1373 204.68 16.4357C205.08 15.7342 205.629 15.2331 206.328 14.8323C207.027 14.4815 207.826 14.2811 208.725 14.2811C209.574 14.2811 210.323 14.4314 210.922 14.732C211.521 15.0327 212.02 15.4336 212.42 15.9848C212.819 16.4859 213.069 17.0872 213.169 17.7887L210.972 18.2397C210.922 17.8889 210.822 17.5381 210.622 17.2375C210.473 16.9368 210.223 16.7364 209.873 16.536C209.574 16.3856 209.174 16.2854 208.725 16.2854C208.275 16.2854 207.826 16.3856 207.476 16.5861C207.127 16.7865 206.827 17.0872 206.628 17.488C206.428 17.8889 206.328 18.3399 206.328 18.9412V19.1416C206.328 19.6928 206.428 20.1939 206.628 20.5948C206.827 20.9957 207.127 21.2963 207.476 21.4967C207.876 21.6972 208.275 21.7974 208.725 21.7974C209.424 21.7974 209.923 21.597 210.273 21.2462C210.622 20.8954 210.872 20.3943 210.972 19.8432L213.169 20.3944C213.019 21.0458 212.72 21.6471 212.37 22.1482C211.971 22.6493 211.521 23.1002 210.872 23.4009C210.323 23.7015 209.574 23.8519 208.725 23.8519ZM217.713 23.8519C217.064 23.8519 216.515 23.7516 215.965 23.5011C215.466 23.2506 215.066 22.9499 214.767 22.4989C214.467 22.0479 214.317 21.5469 214.317 20.8954C214.317 20.2941 214.467 19.7429 214.767 19.3421C215.066 18.9412 215.466 18.5904 216.015 18.39C216.564 18.1896 217.164 18.0392 217.813 18.0392H220.26V17.5381C220.26 17.1373 220.11 16.7865 219.86 16.4859C219.61 16.1852 219.161 16.085 218.612 16.085C218.062 16.085 217.613 16.2353 217.363 16.4859C217.064 16.7364 216.914 17.0872 216.814 17.488L214.717 16.7865C214.867 16.3355 215.116 15.8845 215.416 15.5338C215.766 15.1329 216.165 14.8323 216.714 14.5817C217.264 14.3312 217.913 14.231 218.712 14.231C219.91 14.231 220.859 14.5316 221.508 15.1329C222.157 15.7342 222.557 16.5861 222.557 17.7386V21.0959C222.557 21.4466 222.706 21.6471 223.056 21.6471H223.805V23.5512H222.257C221.808 23.5512 221.458 23.451 221.158 23.2004C220.859 23 220.709 22.6994 220.709 22.3486H220.359C220.31 22.4989 220.21 22.6994 220.01 22.9499C219.86 23.2004 219.561 23.4009 219.211 23.5512C218.812 23.7516 218.312 23.8519 217.713 23.8519ZM218.112 21.9978C218.762 21.9978 219.261 21.7974 219.66 21.4466C220.06 21.0959 220.26 20.5948 220.26 19.9935V19.793H217.963C217.563 19.793 217.214 19.8933 216.964 20.0436C216.714 20.244 216.614 20.4946 216.614 20.7952C216.614 21.0959 216.764 21.3965 217.014 21.597C217.264 21.8976 217.613 21.9978 218.112 21.9978ZM224.105 19.1416V18.841C224.105 17.8889 224.304 17.0872 224.654 16.4357C225.053 15.7342 225.503 15.2331 226.152 14.8824C226.801 14.5316 227.45 14.3312 228.199 14.3312C228.998 14.3312 229.647 14.4815 230.047 14.7821C230.446 15.0828 230.796 15.3835 230.995 15.6841H231.345V14.5817H233.592V25.2549C233.592 25.8562 233.392 26.3573 233.043 26.7081C232.693 27.1089 232.194 27.2593 231.595 27.2593H225.553V25.2549H230.796C231.145 25.2549 231.295 25.0545 231.295 24.7037V22.3486H230.946C230.846 22.549 230.646 22.7495 230.446 22.9499C230.246 23.1503 229.947 23.3007 229.597 23.451C229.248 23.6013 228.798 23.6514 228.199 23.6514C227.45 23.6514 226.751 23.451 226.152 23.1002C225.553 22.7495 225.053 22.1983 224.654 21.5469C224.254 20.8954 224.105 20.0436 224.105 19.1416ZM228.848 21.6471C229.547 21.6471 230.147 21.4466 230.596 20.9957C231.045 20.5447 231.295 19.8933 231.295 19.0915V18.8911C231.295 18.0893 231.045 17.4379 230.596 16.9869C230.147 16.536 229.547 16.3355 228.848 16.3355C228.149 16.3355 227.55 16.536 227.101 16.9869C226.651 17.4379 226.402 18.0392 226.402 18.8911V19.0915C226.402 19.8933 226.651 20.5447 227.101 20.9957C227.55 21.3965 228.149 21.6471 228.848 21.6471ZM239.734 23.8519C238.835 23.8519 238.036 23.6514 237.337 23.3007C236.638 22.9499 236.039 22.3987 235.639 21.6972C235.24 20.9957 235.04 20.1939 235.04 19.1917V18.8911C235.04 17.939 235.24 17.0872 235.639 16.3856C236.039 15.6841 236.638 15.183 237.337 14.7821C238.036 14.3813 238.835 14.231 239.734 14.231C240.633 14.231 241.432 14.4314 242.131 14.7821C242.83 15.1329 243.429 15.6841 243.829 16.3856C244.228 17.0872 244.428 17.8889 244.428 18.8911V19.1917C244.428 20.1438 244.228 20.9957 243.829 21.6972C243.429 22.3987 242.83 22.8998 242.131 23.3007C241.432 23.7015 240.633 23.8519 239.734 23.8519ZM239.734 21.7974C240.433 21.7974 241.032 21.597 241.482 21.146C241.931 20.695 242.181 20.0436 242.181 19.1917V18.9913C242.181 18.1394 241.931 17.488 241.482 17.037C241.032 16.5861 240.433 16.3355 239.734 16.3355C239.035 16.3355 238.436 16.5861 237.986 17.037C237.537 17.488 237.287 18.1394 237.287 18.9913V19.1917C237.287 20.0436 237.537 20.695 237.986 21.146C238.436 21.597 239.035 21.7974 239.734 21.7974Z" fill="white"/>
<path d="M105.511 115V0" stroke="white" stroke-width="6"/>
<path d="M14.4309 31.0175C13.582 31.0175 12.833 31.7691 12.833 32.7212C12.833 33.6732 13.5321 34.4249 14.4309 34.4249C15.2798 34.4249 15.9789 33.6732 15.9789 32.7212C16.0288 31.7691 15.3297 31.0175 14.4309 31.0175Z" fill="white"/>
<path d="M14.431 28.061C15.2299 28.061 15.8791 27.3595 15.8791 26.5076C15.8791 25.6558 15.2299 24.9542 14.431 24.9542C13.6321 24.9542 12.9829 25.6558 12.9829 26.5076C12.9829 27.3595 13.6321 28.061 14.431 28.061Z" fill="white"/>
<path d="M37.4505 25.7059C35.7527 25.7059 35.3533 28.5621 35.3533 29.865C35.3533 31.1678 35.7527 34.0741 37.4505 34.0741C39.1483 34.0741 39.5977 31.1678 39.5977 29.865C39.5977 28.512 39.1982 25.7059 37.4505 25.7059Z" fill="white"/>
<path d="M27.8132 46.1003H30.3599L29.8106 45.1482L27.8132 46.1003Z" fill="white"/>
<path d="M72.3546 67.6471C76.549 69.7015 76.549 74.4619 76.549 73.2593C76.549 66.1438 74.302 66.6449 74.4019 62.1852C74.5017 57.6754 79.0457 58.0763 79.0457 58.0763C80.8434 58.1264 81.3926 59.2789 81.3926 59.2789C81.3926 59.2789 80.4938 59.0784 80.1443 59.5795C80.1443 59.5795 78.7961 60.6318 81.2428 66.695C81.7422 67.9477 83.8893 72.207 81.2928 75.3137C79.4452 77.5185 76.4991 76.7168 76.4991 76.7168C76.2994 77.8693 76.1995 78.4706 76.1995 78.4706H78.3467C80.2941 78.5708 80.394 80.8257 80.394 80.8257V90.3464L78.8959 91.8998H73.9525C73.8526 89.5447 76.7488 88.5425 76.7488 88.5425V84.4336H72.1548C69.7081 84.2331 68.4098 79.3225 68.4098 79.3225L66.6121 79.5229C66.5123 79.8235 69.1088 84.8344 69.1088 84.8344L63.8158 90.146V91.6993H58.0235C57.7239 90.2462 60.5202 88.9434 60.5202 88.9434L64.1654 84.8344C64.6148 84.2832 64.3152 83.7821 63.666 83.5316C62.9669 83.2811 62.4177 83.1307 61.6187 82.8301C60.8198 82.5294 57.5241 80.3246 58.9223 76.1155C60.2705 71.9564 64.8644 73.6601 64.8644 73.159C64.8644 72.658 62.4177 66.7952 62.4177 66.7952L64.3651 63.7386L62.0182 65.2919L55.8763 64.1394C55.2272 69.6514 52.7804 68.2484 52.7804 68.2484V64.1394C52.7804 64.1394 52.8803 61.4335 55.2272 60.6318C58.0235 59.6296 59.9709 60.2309 60.8198 60.0305C61.6687 59.8301 61.419 59.0283 61.419 59.0283L57.7239 59.1285L54.4781 56.2723L52.6805 56.0719C49.4348 55.4706 50.6332 52.8148 50.6332 52.8148H55.2771C57.0248 52.8148 61.6187 56.3224 61.6187 56.3224C61.6187 56.3224 62.2679 52.4139 58.8224 51.0109C55.377 49.658 56.126 48.5556 56.126 48.5556L59.3717 49.7081C59.3717 49.7081 59.7712 49.3072 59.172 48.4553C58.8723 48.0044 56.2758 47.0022 56.2758 47.0022C54.2285 46.2004 54.8776 44.4466 54.8776 44.4466L58.5228 44.8475C59.3717 44.0457 59.2718 43.9455 60.4702 43.7952C61.6687 43.5948 63.5662 45.3486 63.3664 44.7974C63.1667 44.1961 63.0169 42.4423 62.8171 40.6885C62.6673 39.085 67.5609 46.451 67.5609 46.451C74.1023 59.1285 72.3546 67.6471 72.3546 67.6471ZM54.7777 74.6623V82.0283C54.7777 82.0283 54.8776 85.8867 51.8316 89.0937C48.6359 92.451 45.0406 92.1002 44.9907 92.1002C44.9407 92.1002 41.3455 92.451 38.1497 89.0937C35.0538 85.8366 35.2036 82.0283 35.2036 82.0283V74.6623C35.2036 74.6623 34.3547 74.4118 34.3048 73.5098C34.2548 72.3573 35.4033 72.5577 35.4033 72.5577H37.7003C37.6004 75.0632 39.0984 74.7625 39.0984 74.7625C40.6963 74.8126 40.3468 72.5577 40.3468 72.5577H49.6845C49.6845 72.5577 49.3349 74.8628 50.9328 74.7625C50.9328 74.7625 52.4308 75.0632 52.331 72.5577H54.6279C54.6279 72.5577 55.7764 72.3573 55.7265 73.5098C55.6266 74.4118 54.7777 74.6623 54.7777 74.6623ZM27.3639 66.7952C27.3639 66.7952 24.9171 72.658 24.9171 73.159C24.9171 73.6601 29.5111 71.9564 30.9092 76.1155C32.3074 80.3246 29.0117 82.5294 28.2128 82.8301C27.4138 83.1307 26.8646 83.3312 26.1655 83.5316C25.5163 83.732 25.2167 84.2832 25.6661 84.8344L29.3113 88.9434C29.3113 88.9434 32.1076 90.1961 31.808 91.6993H26.0157V90.146L20.7227 84.7843C20.7227 84.7843 23.3192 79.7734 23.2194 79.4728L21.4717 79.2723C21.4717 79.2723 20.1734 84.183 17.7266 84.3834H13.1327V88.4924C13.1327 88.4924 16.0289 89.4946 15.929 91.8497H10.9855L9.48749 90.2963V80.7756C9.48749 80.7756 9.58735 78.5207 11.5348 78.4205H13.682C13.682 78.4205 13.5821 77.8192 13.3824 76.6667C13.3824 76.6667 10.4362 77.4684 8.58867 75.2636C5.99209 72.1569 8.13927 67.8475 8.63861 66.6449C11.0854 60.5316 9.73716 59.5294 9.73716 59.5294C9.38762 59.0283 8.4888 59.2288 8.4888 59.2288C8.4888 59.2288 9.03808 58.0763 10.8357 58.0261C10.8357 58.0261 15.4296 57.6253 15.4796 62.1351C15.5795 66.6449 13.3324 66.1438 13.3324 73.2092C13.3324 74.4619 13.3324 69.7015 17.5269 67.5969C17.5269 67.5969 15.7792 59.0784 22.1208 46.4009C22.1208 46.4009 27.0643 39.0349 26.8646 40.6383C26.6648 42.3922 26.515 44.146 26.3153 44.7473C26.1156 45.3486 28.0131 43.5948 29.2115 43.7451C30.4099 43.9455 30.31 44.0458 31.1589 44.7974L34.8041 44.3965C34.8041 44.3965 35.4532 46.1503 33.4059 46.9521C33.4059 46.9521 30.8094 47.9542 30.5098 48.4052C29.9605 49.3072 30.31 49.658 30.31 49.658L33.5557 48.5054C33.5557 48.5054 34.3048 49.6078 30.8593 50.9608C27.4138 52.3137 28.063 56.2723 28.063 56.2723C28.063 56.2723 32.6569 52.7647 34.4046 52.7647H39.0485C39.0485 52.7647 40.2469 55.4205 37.0012 56.0218L35.2036 56.2222L31.9578 59.0784L28.2627 58.9782C28.2627 58.9782 28.0131 59.78 28.8619 59.9804C29.7108 60.1808 31.6582 59.5795 34.4546 60.5817C36.8015 61.3834 36.9013 64.0893 36.9013 64.0893V68.1983C36.9013 68.1983 34.4546 69.5512 33.8054 64.0893L27.6635 65.2418L25.3166 63.6885L27.3639 66.7952ZM7.19052 36.9804H3.84493V26.1068H2.44677L2.99605 23H7.14058V36.9804H7.19052ZM9.98683 26.4074C9.98683 23.7516 12.2339 22.4488 14.4809 22.4488C16.7279 22.4488 18.975 23.7516 18.975 26.4074C18.975 27.8606 18.1261 29.1133 16.8777 29.5643V29.6144C18.4257 30.1656 19.4743 31.4183 19.4743 33.2222C19.4743 36.0784 16.7279 37.3813 14.431 37.3813C12.134 37.3813 9.38762 36.0784 9.38762 33.2222C9.38762 31.4183 10.4362 30.1656 11.9842 29.6144V29.5643C10.8357 29.1133 9.98683 27.8606 9.98683 26.4074ZM21.222 26.4575V23.1002H32.2075L24.8672 36.9303H20.7227L26.565 26.4575H21.222ZM37.4506 22.5991C41.2456 22.5991 42.8934 26.3573 42.8934 29.8649C42.8934 33.3725 41.2955 37.1307 37.4506 37.1307C33.6556 37.1307 32.0078 33.3725 32.0078 29.8649C32.0577 26.3573 33.6556 22.5991 37.4506 22.5991ZM44.8908 43.1438C44.8908 43.1438 44.9407 43.1438 44.9407 43.1939L44.9907 43.1438C45.49 43.1438 45.8895 43.5948 45.8895 44.0959C45.8895 44.4466 45.6897 44.7473 45.4401 44.9477V63.9891L51.4322 70.4031V72.4575H50.5333V70.854L44.9407 64.841L39.3481 70.854V72.4575H38.4493V70.4031L44.4414 63.9891V44.9477C44.1917 44.7974 43.992 44.4967 43.992 44.0959C43.992 43.5948 44.3914 43.1438 44.8908 43.1438ZM89.8814 12.3769L64.3651 36.9804H57.9236L89.8814 6.1634V0L51.4821 36.9804H45.0406L83.6896 0H77.2481L45.0406 30.817V24.6536L70.8066 0H64.3651L45.0406 18.4902V12.3268L57.9236 0H51.4821L45.0406 6.1634V0H0V75.2636C0 102.874 44.9407 114.499 44.9407 114.499C44.9407 114.499 89.8814 102.924 89.8814 75.2636V36.9804H83.7396L89.8814 30.817V24.6536L77.298 36.9804H70.8565L89.8814 18.4902V12.3769Z" fill="white"/>
<path d="M62.0681 46.1003H59.5215L60.0708 45.1482L62.0681 46.1003Z" fill="white"/>
</svg>
